REM DIRINDEX 1\2\6,1\2\7,1\2\8,1\2\9,1\3\10,1\3\11,1\4\12,1\4\13,1\4\14,1\5\15,1\5\16,1\5\17
REM DIRNAME folder01,folder02,folder03,folder04,folder05,folder06,folder07,folder08,folder09,folder10,folder11,folder12,folder13,folder14,folder15,folder16,folder17
TITLE ""
FILE "1900_3_087 sec15_1433_1449.mp3" MP3
  TRACK 01 AUDIO
    TITLE "0:"
    INDEX 01 00:00:00
  TRACK 02 AUDIO
    TITLE "17:cjc020_8847"
    INDEX 01 00:00:21
  TRACK 03 AUDIO
    TITLE "0:"
    INDEX 01 00:02:67
  TRACK 04 AUDIO
    TITLE "16:cjc020_8848"
    INDEX 01 00:03:00
  TRACK 05 AUDIO
    TITLE "0:"
    INDEX 01 00:04:19
  TRACK 06 AUDIO
    TITLE "17:cjc020_8849"
    INDEX 01 00:05:03
  TRACK 07 AUDIO
    TITLE "0:"
    INDEX 01 00:06:14
  TRACK 08 AUDIO
    TITLE "16:cjc020_8850"
    INDEX 01 00:06:20
  TRACK 09 AUDIO
    TITLE "0:"
    INDEX 01 00:07:41
  TRACK 10 AUDIO
    TITLE "17:cjc020_8851"
    INDEX 01 00:08:24
  TRACK 11 AUDIO
    TITLE "0:"
    INDEX 01 00:09:57
  TRACK 12 AUDIO
    TITLE "16:cjc020_8852"
    INDEX 01 00:09:61
  TRACK 13 AUDIO
    TITLE "0:"
    INDEX 01 00:10:68
  TRACK 14 AUDIO
    TITLE "17:cjc020_8853"
    INDEX 01 00:11:54
  TRACK 15 AUDIO
    TITLE "0:"
    INDEX 01 00:13:04
  TRACK 16 AUDIO
    TITLE "16:cjc020_8854"
    INDEX 01 00:13:10
  TRACK 17 AUDIO
    TITLE "0:"
    INDEX 01 00:14:19
  TRACK 18 AUDIO
    TITLE "17:cjc020_8855"
    INDEX 01 00:15:05
  TRACK 19 AUDIO
    TITLE "0:"
    INDEX 01 00:16:22
  TRACK 20 AUDIO
    TITLE "16:cjc020_8856"
    INDEX 01 00:16:28
  TRACK 21 AUDIO
    TITLE "0:"
    INDEX 01 00:17:47
  TRACK 22 AUDIO
    TITLE "17:cjc020_8857"
    INDEX 01 00:18:31
  TRACK 23 AUDIO
    TITLE "0:"
    INDEX 01 00:19:48
  TRACK 24 AUDIO
    TITLE "16:cjc020_8858"
    INDEX 01 00:19:54
  TRACK 25 AUDIO
    TITLE "0:"
    INDEX 01 00:20:65
  TRACK 26 AUDIO
    TITLE "17:cjc020_8859"
    INDEX 01 00:21:51
  TRACK 27 AUDIO
    TITLE "0:"
    INDEX 01 00:22:52
  TRACK 28 AUDIO
    TITLE "16:cjc020_8860"
    INDEX 01 00:22:54
  TRACK 29 AUDIO
    TITLE "0:"
    INDEX 01 00:23:65
  TRACK 30 AUDIO
    TITLE "17:cjc020_8861"
    INDEX 01 00:24:47
  TRACK 31 AUDIO
    TITLE "0:"
    INDEX 01 00:25:64
  TRACK 32 AUDIO
    TITLE "16:cjc020_8862"
    INDEX 01 00:25:70
  TRACK 33 AUDIO
    TITLE "0:"
    INDEX 01 00:27:12
  TRACK 34 AUDIO
    TITLE "17:cjc020_8863"
    INDEX 01 00:27:67
  TRACK 35 AUDIO
    TITLE "0:"
    INDEX 01 00:28:66
  TRACK 36 AUDIO
    TITLE "16:cjc020_8864"
    INDEX 01 00:28:72
  TRACK 37 AUDIO
    TITLE "0:"
    INDEX 01 00:30:08
  TRACK 38 AUDIO
    TITLE "17:cjc020_8865"
    INDEX 01 00:30:67
  TRACK 39 AUDIO
    TITLE "0:"
    INDEX 01 00:31:69
  TRACK 40 AUDIO
    TITLE "16:cjc020_8866"
    INDEX 01 00:31:71
  TRACK 41 AUDIO
    TITLE "0:"
    INDEX 01 00:32:70
  TRACK 42 AUDIO
    TITLE "17:cjc020_8867"
    INDEX 01 00:33:52
  TRACK 43 AUDIO
    TITLE "0:"
    INDEX 01 00:34:63
  TRACK 44 AUDIO
    TITLE "16:cjc020_8868"
    INDEX 01 00:34:67
  TRACK 45 AUDIO
    TITLE "0:"
    INDEX 01 00:35:68
  TRACK 46 AUDIO
    TITLE "17:cjc020_8869"
    INDEX 01 00:36:50
  TRACK 47 AUDIO
    TITLE "0:"
    INDEX 01 00:37:63
  TRACK 48 AUDIO
    TITLE "16:cjc020_8870"
    INDEX 01 00:37:67
  TRACK 49 AUDIO
    TITLE "0:"
    INDEX 01 00:39:13
  TRACK 50 AUDIO
    TITLE "17:cjc020_8871"
    INDEX 01 00:39:74
  TRACK 51 AUDIO
    TITLE "0:"
    INDEX 01 00:41:10
  TRACK 52 AUDIO
    TITLE "16:cjc020_8872"
    INDEX 01 00:41:16
  TRACK 53 AUDIO
    TITLE "0:"
    INDEX 01 00:42:14
  TRACK 54 AUDIO
    TITLE "17:cjc020_8873"
    INDEX 01 00:43:03
  TRACK 55 AUDIO
    TITLE "0:"
    INDEX 01 00:44:20
  TRACK 56 AUDIO
    TITLE "16:cjc020_8874"
    INDEX 01 00:44:22
  TRACK 57 AUDIO
    TITLE "0:"
    INDEX 01 00:45:24
  TRACK 58 AUDIO
    TITLE "17:cjc020_8875"
    INDEX 01 00:46:07
  TRACK 59 AUDIO
    TITLE "0:"
    INDEX 01 00:47:13
  TRACK 60 AUDIO
    TITLE "16:cjc020_8876"
    INDEX 01 00:47:15
  TRACK 61 AUDIO
    TITLE "0:"
    INDEX 01 00:48:22
  TRACK 62 AUDIO
    TITLE "17:cjc020_8877"
    INDEX 01 00:49:04
  TRACK 63 AUDIO
    TITLE "0:"
    INDEX 01 00:50:21
  TRACK 64 AUDIO
    TITLE "16:cjc020_8878"
    INDEX 01 00:50:25
  TRACK 65 AUDIO
    TITLE "0:"
    INDEX 01 00:51:42
  TRACK 66 AUDIO
    TITLE "17:cjc020_8879"
    INDEX 01 00:52:24
  TRACK 67 AUDIO
    TITLE "0:"
    INDEX 01 00:53:47
  TRACK 68 AUDIO
    TITLE "16:cjc020_8880"
    INDEX 01 00:53:53
  TRACK 69 AUDIO
    TITLE "0:"
    INDEX 01 00:54:64
